<svg xmlns="http://www.w3.org/2000/svg" xmlns:xlink="http://www.w3.org/1999/xlink" version="1.1" style="shape-rendering:geometricPrecision; text-rendering:geometricPrecision; image-rendering:optimizeQuality; fill-rule:evenodd; clip-rule:evenodd" viewBox="189.5 185.39 419.55 228.44">
<g><path style="opacity:0.97" fill="#c28b7e" d="M 396.5,185.5 C 398.604,185.201 400.604,185.534 402.5,186.5C 408.333,198.167 414.167,209.833 420,221.5C 424.833,216.667 429.667,211.833 434.5,207C 435.449,206.383 436.282,206.549 437,207.5C 448.047,228.429 459.213,249.262 470.5,270C 468.199,272.156 465.533,273.822 462.5,275C 441.713,284.728 420.713,293.895 399.5,302.5C 378.287,293.895 357.287,284.728 336.5,275C 333.467,273.822 330.801,272.156 328.5,270C 339.787,249.262 350.953,228.429 362,207.5C 362.718,206.549 363.551,206.383 364.5,207C 369.333,211.833 374.167,216.667 379,221.5C 385.117,209.601 390.95,197.601 396.5,185.5 Z M 398.5,198.5 C 399.376,198.369 400.043,198.702 400.5,199.5C 410.833,220.167 421.167,240.833 431.5,261.5C 421.167,272.5 410.5,283.167 399.5,293.5C 388.5,283.167 377.833,272.5 367.5,261.5C 378.116,240.601 388.45,219.601 398.5,198.5 Z M 379.5,285.5 C 365.4,279.948 351.733,273.615 338.5,266.5C 347.534,250.627 356.367,234.627 365,218.5C 368.5,222 372,225.5 375.5,229C 369.57,240.194 363.903,251.527 358.5,263C 365.326,270.659 372.326,278.159 379.5,285.5 Z M 419.5,285.5 C 426.674,278.159 433.674,270.659 440.5,263C 435.097,251.527 429.43,240.194 423.5,229C 427,225.5 430.5,222 434,218.5C 443.087,234.339 451.92,250.339 460.5,266.5C 447.267,273.615 433.6,279.948 419.5,285.5 Z"/></g>
<g><path style="opacity:0.982" fill="#ecbb79" d="M 293.5,318.5 C 298.628,318.112 303.628,318.612 308.5,320C 313.206,329.246 318.039,338.412 323,347.5C 328.04,337.92 333.206,328.42 338.5,319C 343.419,318.198 348.252,318.365 353,319.5C 353.826,339.407 353.659,359.24 352.5,379C 347.833,379.667 343.167,379.667 338.5,379C 338,378.5 337.5,378 337,377.5C 336.357,367.743 336.69,358.077 338,348.5C 335.487,355.027 332.32,361.193 328.5,367C 324.833,367.667 321.167,367.667 317.5,367C 313.429,361.694 310.263,355.861 308,349.5C 308.557,359.127 308.557,368.793 308,378.5C 303.197,379.812 298.364,379.812 293.5,378.5C 292.18,358.435 292.18,338.435 293.5,318.5 Z"/></g>
<g><path style="opacity:0.965" fill="#edbc79" d="M 191.5,318.5 C 196.43,318.197 201.263,318.531 206,319.5C 206.5,334.163 206.667,348.83 206.5,363.5C 214.223,363.2 221.89,363.533 229.5,364.5C 230.802,369.385 230.802,374.218 229.5,379C 216.833,379.667 204.167,379.667 191.5,379C 191,378.5 190.5,378 190,377.5C 189.333,358.5 189.333,339.5 190,320.5C 190.717,319.956 191.217,319.289 191.5,318.5 Z"/></g>
<g><path style="opacity:0.975" fill="#ecbb79" d="M 235.5,318.5 C 240.43,318.197 245.263,318.531 250,319.5C 250.333,332.167 250.667,344.833 251,357.5C 251.711,362.377 254.544,365.043 259.5,365.5C 263.06,365.333 265.56,363.666 267,360.5C 267.333,347.167 267.667,333.833 268,320.5C 268.5,320 269,319.5 269.5,319C 274.419,318.198 279.252,318.365 284,319.5C 285.928,334.802 285.928,350.136 284,365.5C 279.265,375.957 271.098,380.957 259.5,380.5C 251.696,380.843 244.862,378.51 239,373.5C 236.522,370.211 234.856,366.544 234,362.5C 233.333,348.5 233.333,334.5 234,320.5C 234.717,319.956 235.217,319.289 235.5,318.5 Z"/></g>
<g><path style="opacity:0.967" fill="#ecbb79" d="M 363.5,318.5 C 368.179,318.334 372.845,318.501 377.5,319C 378.191,320.067 378.691,321.234 379,322.5C 379.667,340.5 379.667,358.5 379,376.5C 378.626,377.416 378.126,378.25 377.5,379C 372.833,379.667 368.167,379.667 363.5,379C 363,378.5 362.5,378 362,377.5C 361.333,358.5 361.333,339.5 362,320.5C 362.717,319.956 363.217,319.289 363.5,318.5 Z"/></g>
<g><path style="opacity:0.98" fill="#ecba79" d="M 388.5,318.5 C 393.565,318.219 398.565,318.552 403.5,319.5C 410.166,328.828 416.333,338.495 422,348.5C 421.481,339.198 421.481,329.865 422,320.5C 422.5,320 423,319.5 423.5,319C 428.087,318.201 432.587,318.368 437,319.5C 438.143,329.238 438.643,339.072 438.5,349C 438.333,358.167 438.167,367.333 438,376.5C 437.626,377.416 437.126,378.25 436.5,379C 431.833,379.667 427.167,379.667 422.5,379C 414.877,369.596 408.377,359.43 403,348.5C 403.525,358.135 403.525,367.802 403,377.5C 402.5,378 402,378.5 401.5,379C 397.167,379.667 392.833,379.667 388.5,379C 388,378.5 387.5,378 387,377.5C 386.333,358.5 386.333,339.5 387,320.5C 387.717,319.956 388.217,319.289 388.5,318.5 Z"/></g>
<g><path style="opacity:0.975" fill="#ecbb79" d="M 463.5,318.5 C 468.179,318.334 472.845,318.501 477.5,319C 478.416,319.374 479.25,319.874 480,320.5C 486.694,339.387 493.527,358.221 500.5,377C 500.355,377.772 500.022,378.439 499.5,379C 494.5,379.667 489.5,379.667 484.5,379C 481.455,377.067 479.788,374.234 479.5,370.5C 473.537,369.504 467.537,369.171 461.5,369.5C 461.425,373.597 459.758,376.763 456.5,379C 451.833,379.667 447.167,379.667 442.5,379C 441.941,378.275 441.608,377.442 441.5,376.5C 448.26,356.876 455.594,337.543 463.5,318.5 Z M 471.5,339.5 C 471.708,344.958 473.042,350.125 475.5,355C 472.518,355.498 469.518,355.665 466.5,355.5C 467.815,350.906 468.815,346.239 469.5,341.5C 470.167,340.833 470.833,340.167 471.5,339.5 Z"/></g>
<g><path style="opacity:0.971" fill="#edbb79" d="M 505.5,318.5 C 517.214,318.139 528.881,318.639 540.5,320C 551.262,325.568 555.096,334.401 552,346.5C 550.507,350.831 548.007,354.497 544.5,357.5C 547.921,363.342 551.088,369.342 554,375.5C 554.749,376.635 554.583,377.635 553.5,378.5C 547.37,380.062 541.37,379.728 535.5,377.5C 533.016,372.531 530.516,367.531 528,362.5C 526.491,360.081 524.325,359.081 521.5,359.5C 521.916,365.952 521.416,372.285 520,378.5C 515.252,379.635 510.419,379.802 505.5,379C 505,378.5 504.5,378 504,377.5C 503.333,358.5 503.333,339.5 504,320.5C 504.717,319.956 505.217,319.289 505.5,318.5 Z M 521.5,334.5 C 525.182,334.335 528.848,334.501 532.5,335C 535.167,338 535.167,341 532.5,344C 528.848,344.499 525.182,344.665 521.5,344.5C 521.5,341.167 521.5,337.833 521.5,334.5 Z"/></g>
<g><path style="opacity:0.977" fill="#ecbb79" d="M 553.5,318.5 C 559.29,318.096 564.956,318.596 570.5,320C 574.633,325.761 578.133,331.927 581,338.5C 584.373,332.252 587.873,326.085 591.5,320C 597.302,318.235 603.136,318.068 609,319.5C 609.257,322.017 608.59,324.35 607,326.5C 601.081,336.002 595.414,345.669 590,355.5C 589.667,362.833 589.333,370.167 589,377.5C 588.5,378 588,378.5 587.5,379C 582.581,379.802 577.748,379.635 573,378.5C 572.667,371.167 572.333,363.833 572,356.5C 565.919,345.337 559.586,334.337 553,323.5C 552.36,321.735 552.527,320.068 553.5,318.5 Z"/></g>
<g><path style="opacity:0.255" fill="#d7a27c" d="M 471.5,339.5 C 470.833,340.167 470.167,340.833 469.5,341.5C 469.312,339.897 469.812,338.563 471,337.5C 471.464,338.094 471.631,338.761 471.5,339.5 Z"/></g>
<g><path style="opacity:0.948" fill="#c58e7e" d="M 218.5,394.5 C 222.555,394.176 226.555,394.509 230.5,395.5C 230.291,396.086 229.957,396.586 229.5,397C 226.854,397.497 224.187,397.664 221.5,397.5C 221.5,399.167 221.5,400.833 221.5,402.5C 230.833,403.167 230.833,403.833 221.5,404.5C 221.5,406.5 221.5,408.5 221.5,410.5C 224.5,410.5 227.5,410.5 230.5,410.5C 230.5,411.5 230.5,412.5 230.5,413.5C 226.5,413.5 222.5,413.5 218.5,413.5C 218.5,407.167 218.5,400.833 218.5,394.5 Z"/></g>
<g><path style="opacity:0.881" fill="#c38c7e" d="M 233.5,394.5 C 234.978,394.238 236.311,394.571 237.5,395.5C 239.467,399.297 241.634,402.964 244,406.5C 244.499,402.514 244.666,398.514 244.5,394.5C 245.5,394.5 246.5,394.5 247.5,394.5C 247.5,400.833 247.5,407.167 247.5,413.5C 246.178,413.67 245.011,413.337 244,412.5C 241.667,408.5 239.333,404.5 237,400.5C 236.501,404.821 236.334,409.154 236.5,413.5C 235.5,413.5 234.5,413.5 233.5,413.5C 233.5,407.167 233.5,400.833 233.5,394.5 Z"/></g>
<g><path style="opacity:0.951" fill="#c8917e" d="M 251.5,394.5 C 252.5,394.5 253.5,394.5 254.5,394.5C 254.5,399.833 254.5,405.167 254.5,410.5C 257.187,410.336 259.854,410.503 262.5,411C 262.957,411.414 263.291,411.914 263.5,412.5C 259.555,413.491 255.555,413.824 251.5,413.5C 251.5,407.167 251.5,400.833 251.5,394.5 Z"/></g>
<g><path style="opacity:0.87" fill="#c28b7e" d="M 265.5,394.5 C 266.5,394.5 267.5,394.5 268.5,394.5C 268.5,400.833 268.5,407.167 268.5,413.5C 267.5,413.5 266.5,413.5 265.5,413.5C 265.5,407.167 265.5,400.833 265.5,394.5 Z"/></g>
<g><path style="opacity:0.861" fill="#c18a7e" d="M 290.5,394.5 C 291.5,394.5 292.5,394.5 293.5,394.5C 293.5,397.167 293.5,399.833 293.5,402.5C 296.167,402.5 298.833,402.5 301.5,402.5C 301.5,399.833 301.5,397.167 301.5,394.5C 302.5,394.5 303.5,394.5 304.5,394.5C 304.5,400.833 304.5,407.167 304.5,413.5C 303.5,413.5 302.5,413.5 301.5,413.5C 301.5,410.5 301.5,407.5 301.5,404.5C 298.833,404.5 296.167,404.5 293.5,404.5C 293.5,407.5 293.5,410.5 293.5,413.5C 292.5,413.5 291.5,413.5 290.5,413.5C 290.5,407.167 290.5,400.833 290.5,394.5 Z"/></g>
<g><path style="opacity:0.94" fill="#c48d7e" d="M 307.5,394.5 C 312.167,394.5 316.833,394.5 321.5,394.5C 321.5,395.5 321.5,396.5 321.5,397.5C 319.5,397.5 317.5,397.5 315.5,397.5C 315.5,402.833 315.5,408.167 315.5,413.5C 314.5,413.5 313.5,413.5 312.5,413.5C 312.5,408.167 312.5,402.833 312.5,397.5C 310.833,397.5 309.167,397.5 307.5,397.5C 307.5,396.5 307.5,395.5 307.5,394.5 Z"/></g>
<g><path style="opacity:0.942" fill="#c8927e" d="M 323.5,394.5 C 327.5,394.5 331.5,394.5 335.5,394.5C 335.5,395.5 335.5,396.5 335.5,397.5C 332.833,397.5 330.167,397.5 327.5,397.5C 327.5,399.167 327.5,400.833 327.5,402.5C 336.833,403.167 336.833,403.833 327.5,404.5C 327.5,406.5 327.5,408.5 327.5,410.5C 330.167,410.5 332.833,410.5 335.5,410.5C 335.5,411.5 335.5,412.5 335.5,413.5C 331.5,413.5 327.5,413.5 323.5,413.5C 323.5,407.167 323.5,400.833 323.5,394.5 Z"/></g>
<g><path style="opacity:0.948" fill="#c58e7e" d="M 348.5,406.5 C 348.987,407.473 349.487,408.473 350,409.5C 350.815,404.648 350.648,399.981 349.5,395.5C 350.209,394.596 351.209,394.263 352.5,394.5C 352.5,400.833 352.5,407.167 352.5,413.5C 351.178,413.67 350.011,413.337 349,412.5C 346.398,408.294 344.064,403.961 342,399.5C 341.501,404.155 341.334,408.821 341.5,413.5C 340.5,413.5 339.5,413.5 338.5,413.5C 338.5,407.167 338.5,400.833 338.5,394.5C 339.978,394.238 341.311,394.571 342.5,395.5C 344.779,399.061 346.779,402.727 348.5,406.5 Z"/></g>
<g><path style="opacity:0.915" fill="#c58f7e" d="M 360.5,394.5 C 361.822,394.33 362.989,394.663 364,395.5C 365.275,397.717 366.275,400.051 367,402.5C 368.586,400.33 369.92,397.996 371,395.5C 372.049,394.483 373.216,394.316 374.5,395C 370.389,400.498 368.389,406.665 368.5,413.5C 367.5,413.5 366.5,413.5 365.5,413.5C 365.665,410.482 365.498,407.482 365,404.5C 363.214,401.264 361.714,397.93 360.5,394.5 Z"/></g>
<g><path style="opacity:0.933" fill="#c58f7e" d="M 382.5,393.5 C 388.506,394.344 391.506,397.844 391.5,404C 390.203,413.232 385.37,415.732 377,411.5C 372.767,403.376 374.6,397.376 382.5,393.5 Z M 381.5,396.5 C 387.871,398.249 389.705,402.249 387,408.5C 384.333,412.5 381.667,412.5 379,408.5C 378.333,405.5 378.333,402.5 379,399.5C 379.698,398.309 380.531,397.309 381.5,396.5 Z"/></g>
<g><path style="opacity:0.871" fill="#c38d7e" d="M 394.5,394.5 C 395.5,394.5 396.5,394.5 397.5,394.5C 397.334,399.179 397.501,403.845 398,408.5C 400.333,412.5 402.667,412.5 405,408.5C 405.499,403.845 405.666,399.179 405.5,394.5C 406.5,394.5 407.5,394.5 408.5,394.5C 408.666,399.511 408.499,404.511 408,409.5C 406.982,412.683 404.815,414.016 401.5,413.5C 398.185,414.016 396.018,412.683 395,409.5C 394.501,404.511 394.334,399.511 394.5,394.5 Z"/></g>
<g><path style="opacity:0.935" fill="#c58f7e" d="M 412.5,394.5 C 416.182,394.335 419.848,394.501 423.5,395C 426.252,398.856 425.918,402.523 422.5,406C 423.826,408.317 425.16,410.651 426.5,413C 422.623,412.814 420.123,410.647 419,406.5C 417.989,405.663 416.822,405.33 415.5,405.5C 415.5,408.167 415.5,410.833 415.5,413.5C 414.5,413.5 413.5,413.5 412.5,413.5C 412.5,407.167 412.5,400.833 412.5,394.5 Z M 415.5,396.5 C 417.861,396.674 420.194,397.007 422.5,397.5C 422.5,399.167 422.5,400.833 422.5,402.5C 420.139,402.674 417.806,403.007 415.5,403.5C 415.5,401.167 415.5,398.833 415.5,396.5 Z"/></g>
<g><path style="opacity:0.942" fill="#c8927e" d="M 434.5,394.5 C 438.5,394.5 442.5,394.5 446.5,394.5C 446.5,395.5 446.5,396.5 446.5,397.5C 443.833,397.5 441.167,397.5 438.5,397.5C 438.5,399.167 438.5,400.833 438.5,402.5C 447.833,403.167 447.833,403.833 438.5,404.5C 438.5,406.5 438.5,408.5 438.5,410.5C 441.167,410.5 443.833,410.5 446.5,410.5C 446.5,411.5 446.5,412.5 446.5,413.5C 442.5,413.5 438.5,413.5 434.5,413.5C 434.5,407.167 434.5,400.833 434.5,394.5 Z"/></g>
<g><path style="opacity:0.894" fill="#c48e7e" d="M 448.5,394.5 C 449.822,394.33 450.989,394.663 452,395.5C 453,397.5 454,399.5 455,401.5C 456.039,399.254 457.206,397.087 458.5,395C 459.635,394.251 460.635,394.417 461.5,395.5C 459.707,398.251 458.041,401.084 456.5,404C 458.545,406.586 460.211,409.42 461.5,412.5C 460.349,413.731 459.183,413.731 458,412.5C 457,410.5 456,408.5 455,406.5C 453.581,408.336 452.414,410.336 451.5,412.5C 450.277,413.614 448.944,413.781 447.5,413C 449.183,409.99 450.85,406.99 452.5,404C 451.363,400.714 450.03,397.548 448.5,394.5 Z"/></g>
<g><path style="opacity:0.869" fill="#c38d7e" d="M 464.5,394.5 C 467.85,394.335 471.183,394.502 474.5,395C 478.08,397.926 478.413,401.26 475.5,405C 472.937,406.079 470.271,406.579 467.5,406.5C 467.5,408.833 467.5,411.167 467.5,413.5C 466.5,413.5 465.5,413.5 464.5,413.5C 464.5,407.167 464.5,400.833 464.5,394.5 Z M 467.5,396.5 C 470.855,396.368 473.189,397.701 474.5,400.5C 472.974,403.092 470.641,404.092 467.5,403.5C 467.5,401.167 467.5,398.833 467.5,396.5 Z"/></g>
<g><path style="opacity:0.908" fill="#c48e7e" d="M 480.5,394.5 C 484.167,394.5 487.833,394.5 491.5,394.5C 491.5,395.5 491.5,396.5 491.5,397.5C 488.833,397.5 486.167,397.5 483.5,397.5C 483.5,399.167 483.5,400.833 483.5,402.5C 492.833,403.167 492.833,403.833 483.5,404.5C 483.5,406.5 483.5,408.5 483.5,410.5C 486.5,410.5 489.5,410.5 492.5,410.5C 492.5,411.5 492.5,412.5 492.5,413.5C 488.5,413.5 484.5,413.5 480.5,413.5C 480.5,407.167 480.5,400.833 480.5,394.5 Z"/></g>
<g><path style="opacity:0.866" fill="#c28b7e" d="M 495.5,394.5 C 498.85,394.335 502.183,394.502 505.5,395C 509.657,398.931 509.323,402.598 504.5,406C 506.209,407.916 507.543,410.082 508.5,412.5C 507.635,413.583 506.635,413.749 505.5,413C 504.206,410.913 503.039,408.746 502,406.5C 500.989,405.663 499.822,405.33 498.5,405.5C 498.5,408.167 498.5,410.833 498.5,413.5C 497.5,413.5 496.5,413.5 495.5,413.5C 495.5,407.167 495.5,400.833 495.5,394.5 Z M 498.5,396.5 C 501.712,396.106 504.046,397.272 505.5,400C 503.906,402.381 501.573,403.547 498.5,403.5C 498.5,401.167 498.5,398.833 498.5,396.5 Z"/></g>
<g><path style="opacity:0.977" fill="#c7907e" d="M 511.5,394.5 C 512.5,394.5 513.5,394.5 514.5,394.5C 514.5,400.833 514.5,407.167 514.5,413.5C 513.5,413.5 512.5,413.5 511.5,413.5C 511.5,407.167 511.5,400.833 511.5,394.5 Z"/></g>
<g><path style="opacity:0.887" fill="#c48e7e" d="M 519.5,394.5 C 523.167,394.5 526.833,394.5 530.5,394.5C 530.5,395.5 530.5,396.5 530.5,397.5C 527.833,397.5 525.167,397.5 522.5,397.5C 522.5,399.167 522.5,400.833 522.5,402.5C 531.833,403.167 531.833,403.833 522.5,404.5C 522.5,406.5 522.5,408.5 522.5,410.5C 525.187,410.336 527.854,410.503 530.5,411C 530.957,411.414 531.291,411.914 531.5,412.5C 527.555,413.491 523.555,413.824 519.5,413.5C 519.5,407.167 519.5,400.833 519.5,394.5 Z"/></g>
<g><path style="opacity:0.945" fill="#c6907e" d="M 534.5,394.5 C 535.822,394.33 536.989,394.663 538,395.5C 540.333,399.5 542.667,403.5 545,407.5C 545.499,403.179 545.666,398.846 545.5,394.5C 546.5,394.5 547.5,394.5 548.5,394.5C 548.5,400.833 548.5,407.167 548.5,413.5C 547.022,413.762 545.689,413.429 544.5,412.5C 542.333,408.833 540.167,405.167 538,401.5C 537.501,405.486 537.334,409.486 537.5,413.5C 536.5,413.5 535.5,413.5 534.5,413.5C 534.5,407.167 534.5,400.833 534.5,394.5 Z"/></g>
<g><path style="opacity:0.907" fill="#c38d7e" d="M 559.5,393.5 C 561.868,394.014 563.868,395.18 565.5,397C 564.975,397.692 564.308,398.192 563.5,398.5C 559.945,395.736 557.112,396.402 555,400.5C 553.625,405.756 555.291,409.422 560,411.5C 561.692,409.755 563.525,409.422 565.5,410.5C 564.45,412.873 562.617,413.873 560,413.5C 554.02,413.185 551.187,410.019 551.5,404C 551.431,398.253 554.098,394.753 559.5,393.5 Z"/></g>
<g><path style="opacity:0.908" fill="#c48e7e" d="M 568.5,394.5 C 572.167,394.5 575.833,394.5 579.5,394.5C 579.5,395.5 579.5,396.5 579.5,397.5C 576.833,397.5 574.167,397.5 571.5,397.5C 571.5,399.167 571.5,400.833 571.5,402.5C 580.833,403.167 580.833,403.833 571.5,404.5C 571.5,406.5 571.5,408.5 571.5,410.5C 574.5,410.5 577.5,410.5 580.5,410.5C 580.5,411.5 580.5,412.5 580.5,413.5C 576.5,413.5 572.5,413.5 568.5,413.5C 568.5,407.167 568.5,400.833 568.5,394.5 Z"/></g>
<g><path style="opacity:0.928" fill="#c48e7e" d="M 279.5,393.5 C 282.09,393.918 284.423,394.918 286.5,396.5C 286.167,397.5 285.5,398.167 284.5,398.5C 281.437,395.893 278.604,396.226 276,399.5C 275.333,402.5 275.333,405.5 276,408.5C 280.662,413.012 283.162,412.012 283.5,405.5C 282.022,405.762 280.689,405.429 279.5,404.5C 281.743,403.526 284.076,403.192 286.5,403.5C 288.475,412.338 285.142,415.505 276.5,413C 272.142,408.866 270.975,404.033 273,398.5C 274.805,396.174 276.972,394.508 279.5,393.5 Z"/></g>
<g><path style="opacity:0.255" fill="#d9a57b" d="M 349.5,395.5 C 350.648,399.981 350.815,404.648 350,409.5C 349.487,408.473 348.987,407.473 348.5,406.5C 349.482,403.038 349.815,399.371 349.5,395.5 Z"/></g>
<g><path style="opacity:0.786" fill="#c28b7e" d="M 201.5,402.5 C 205.167,402.5 208.833,402.5 212.5,402.5C 212.5,403.5 212.5,404.5 212.5,405.5C 208.833,405.5 205.167,405.5 201.5,405.5C 201.5,404.5 201.5,403.5 201.5,402.5 Z"/></g>
<g><path style="opacity:0.786" fill="#c28b7e" d="M 586.5,402.5 C 590.167,402.5 593.833,402.5 597.5,402.5C 597.5,403.5 597.5,404.5 597.5,405.5C 593.833,405.5 590.167,405.5 586.5,405.5C 586.5,404.5 586.5,403.5 586.5,402.5 Z"/></g>
</svg>